<?xml version="1.0" encoding="UTF-8" standalone="no"?>
<!DOCTYPE svg PUBLIC "-//W3C//DTD SVG 1.1//EN" "http://www.w3.org/Graphics/SVG/1.1/DTD/svg11.dtd">
<svg version="1.1" xmlns="http://www.w3.org/2000/svg" xmlns:xlink="http://www.w3.org/1999/xlink" preserveAspectRatio="xMidYMid meet" viewBox="0 0 557.06 450" width="557.06" height="450"><defs><path d="M548.31 225L413.42 7.5L143.64 7.5L8.75 225L143.64 442.5L413.42 442.5L548.31 225Z" id="a3dDFsS2lk"></path><path d="M276.53 56.32L276.53 56.32L124.01 112.68L147.27 321.65L276.53 395.84L276.53 395.84L276.53 395.84L405.79 321.65L429.05 112.68L276.53 56.32L276.53 56.32Z" id="cW63eoSA8"></path><path d="M276.53 94.01L276.53 93.84L276.53 265.8L276.53 265.8L276.53 395.84L276.53 395.84L405.79 321.65L429.05 112.68L276.53 56.32L276.53 56.32L276.53 94.01Z" id="aaBGf18h2"></path><path d="M336.16 320.99L316.99 271.43L236.06 271.43L216.9 320.99L181.35 320.99L276.69 99.46L371.71 320.99L336.16 320.99ZM304.54 240.87L276.69 171.44L248.84 240.87L304.54 240.87Z" id="aBPUcwOUt"></path></defs><g><g><g><use xlink:href="#a3dDFsS2lk" opacity="1" fill="#4a345e" fill-opacity="1"></use><g><use xlink:href="#a3dDFsS2lk" opacity="1" fill-opacity="0" stroke="#53df32" stroke-width="15" stroke-opacity="1"></use></g></g><g><use xlink:href="#cW63eoSA8" opacity="1" fill="#dd0031" fill-opacity="1"></use><g><use xlink:href="#cW63eoSA8" opacity="1" fill-opacity="0" stroke="#000000" stroke-width="1" stroke-opacity="0"></use></g></g><g><use xlink:href="#aaBGf18h2" opacity="1" fill="#c3002f" fill-opacity="1"></use><g><use xlink:href="#aaBGf18h2" opacity="1" fill-opacity="0" stroke="#000000" stroke-width="1" stroke-opacity="0"></use></g></g><g><use xlink:href="#aBPUcwOUt" opacity="1" fill="#ffffff" fill-opacity="1"></use><g><use xlink:href="#aBPUcwOUt" opacity="1" fill-opacity="0" stroke="#000000" stroke-width="1" stroke-opacity="0"></use></g></g></g></g></svg>