<?xml version="1.0" encoding="UTF-8" standalone="no"?>
<!DOCTYPE svg PUBLIC "-//W3C//DTD SVG 1.1//EN" "http://www.w3.org/Graphics/SVG/1.1/DTD/svg11.dtd">
<svg version="1.1" xmlns="http://www.w3.org/2000/svg" xmlns:xlink="http://www.w3.org/1999/xlink" preserveAspectRatio="xMidYMid meet" viewBox="0 0 557.06 450" width="557.06" height="450"><defs><path d="M548.31 227.28L413.42 9.78L143.64 9.78L8.75 227.28L143.64 444.79L413.42 444.78L548.31 227.28Z" id="e4YJY1OYar"></path><path d="M281.5 398.18L179.27 372.35L156.48 139.8L406.83 139.8L384.02 372.32L281.5 398.18ZM204 192.17L205.43 207.67L206.06 214.32L325.99 214.32L323.13 242.59L244.39 242.59L245.14 250.29L246.56 264.81L247.19 270.86L320.34 270.86L316.65 308.25L281.65 317.23L281.65 317.27L281.67 317.27L281.65 317.31L281.65 317.27L246.8 308.81L244.57 286.28L213.11 286.28L217.45 330.84L281.6 346.84L281.65 346.8L281.65 346.8L345.3 330.62L345.27 325.8L351.91 269.54L359.49 192.05L360.24 183.48L203.26 183.48L204 192.17Z" id="aOQNxUDe"></path><path d="M282.19 73.02L307.32 102.46L307.32 115.2L251.07 115.2L251.07 97.63L280.57 97.63L251.07 70.78L251.07 55.44L307.32 55.44L307.32 73.02L282.19 73.02Z" id="c9EPnZuEr"></path><path d="M363 73.02L388.14 102.46L388.14 115.2L331.89 115.2L331.89 97.63L361.38 97.63L331.89 70.78L331.89 55.44L388.14 55.44L388.14 73.02L363 73.02Z" id="aBJ26YWFY"></path><path d="M227.93 72.18L195.42 72.18L195.42 97.95L227.93 97.95L227.93 115.2L175.17 115.2L175.17 55.44L227.93 55.44L227.93 72.18Z" id="g3AsL2h5EX"></path></defs><g><g><g><use xlink:href="#e4YJY1OYar" opacity="1" fill="#f5f5f5" fill-opacity="1"></use><g><use xlink:href="#e4YJY1OYar" opacity="1" fill-opacity="0" stroke="#53df32" stroke-width="15" stroke-opacity="1"></use></g></g><g><use xlink:href="#aOQNxUDe" opacity="1" fill="#1572b6" fill-opacity="1"></use><g><use xlink:href="#aOQNxUDe" opacity="1" fill-opacity="0" stroke="#000000" stroke-width="1" stroke-opacity="0"></use></g></g><g><use xlink:href="#c9EPnZuEr" opacity="1" fill="#1572b6" fill-opacity="1"></use><g><use xlink:href="#c9EPnZuEr" opacity="1" fill-opacity="0" stroke="#000000" stroke-width="1" stroke-opacity="0"></use></g></g><g><use xlink:href="#aBJ26YWFY" opacity="1" fill="#1572b6" fill-opacity="1"></use><g><use xlink:href="#aBJ26YWFY" opacity="1" fill-opacity="0" stroke="#000000" stroke-width="1" stroke-opacity="0"></use></g></g><g><use xlink:href="#g3AsL2h5EX" opacity="1" fill="#1572b6" fill-opacity="1"></use><g><use xlink:href="#g3AsL2h5EX" opacity="1" fill-opacity="0" stroke="#1572b6" stroke-width="1" stroke-opacity="1"></use></g></g></g></g></svg>