<?xml version="1.0" encoding="UTF-8" standalone="no"?>
<!DOCTYPE svg PUBLIC "-//W3C//DTD SVG 1.1//EN" "http://www.w3.org/Graphics/SVG/1.1/DTD/svg11.dtd">
<svg version="1.1" xmlns="http://www.w3.org/2000/svg" xmlns:xlink="http://www.w3.org/1999/xlink" preserveAspectRatio="xMidYMid meet" viewBox="0 0 557.06 450" width="557.06" height="450"><defs><path d="M548.31 225L413.42 7.5L143.64 7.5L8.75 225L143.64 442.5L413.42 442.5L548.31 225Z" id="as2SoiOdj"></path><path d="M298.13 59.18C342.76 83.05 387.42 106.87 432.05 130.75C440.44 135.23 446.05 144.07 445.97 153.22C445.97 167.58 445.97 282.44 445.97 296.8C446.03 306.33 439.86 315.38 431.01 319.75C386.51 343.49 342.05 367.25 297.56 390.98C288.5 395.89 276.7 395.51 267.92 390.2C254.58 382.89 241.22 375.61 227.88 368.3C225.15 366.76 222.08 365.54 220.16 363.04C221.86 360.87 224.9 360.6 227.37 359.65C232.94 357.97 238.05 355.29 243.17 352.68C244.46 351.84 246.04 352.16 247.28 352.91C258.69 359.1 269.99 365.46 281.44 371.59C283.88 372.93 286.35 371.16 288.44 370.06C332.1 346.71 375.81 323.45 419.46 300.09C421.08 299.36 421.97 297.73 421.84 296.06C421.87 248.69 421.85 201.32 421.86 153.95C422.04 152.05 420.88 150.3 419.06 149.52C374.72 125.9 330.41 102.24 286.08 78.61C284.51 77.59 282.43 77.58 280.86 78.6C236.53 102.24 192.22 125.92 147.9 149.55C146.08 150.33 144.87 152.04 145.08 153.95C145.09 201.32 145.08 248.69 145.08 296.06C144.93 297.74 145.89 299.33 147.49 300.05C159.32 306.4 171.17 312.7 183.01 319.03C189.67 322.42 197.86 324.44 205.21 321.84C211.69 319.64 216.24 313.38 216.11 306.86C216.18 259.78 216.08 212.68 216.16 165.6C216 163.51 218.09 161.78 220.24 161.98C225.93 161.94 231.62 161.91 237.3 161.99C239.67 161.94 241.31 164.19 241.01 166.3C240.99 213.68 241.07 261.07 240.97 308.46C240.99 321.09 235.51 334.83 223.16 341.01C207.95 348.46 189.15 346.88 174.13 339.73C161.12 333.59 148.7 326.34 135.93 319.76C127.05 315.41 120.91 306.33 120.97 296.8C120.97 282.44 120.97 167.58 120.97 153.22C120.88 143.88 126.72 134.88 135.37 130.47C179.86 106.72 224.33 82.94 268.81 59.18C277.69 54.37 289.25 54.35 298.13 59.18Z" id="b19PR5dv0o"></path><path d="M366.33 171.23C376.98 178.24 382.89 192.94 383.08 207.31C382.78 209.24 381.11 210.31 379.59 210.18C375.15 210.17 370.71 210.25 366.28 210.14C364.39 210.23 363.3 208.13 363.06 206.11C361.79 199.23 358.7 192.43 353.37 189.11C345.19 184.14 335.7 184.39 326.78 184.49C320.26 184.91 313.26 185.6 307.74 190.25C303.5 193.77 302.22 200.88 303.73 206.6C305.15 210.71 309.06 212.04 312.26 213.26C330.69 219.11 350.22 218.53 368.3 226.23C375.78 229.36 383.1 235.46 385.66 244.97C389.01 257.72 387.54 272.95 380.07 283.19C374.01 291.61 365.19 296.19 356.39 298.68C344.68 301.85 332.52 301.93 320.63 300.52C309.45 298.97 297.82 295.41 289.18 286.16C281.8 278.38 278.2 266.26 278.55 254.57C278.64 252.59 280.26 251.21 281.82 251.38C286.29 251.33 290.76 251.32 295.22 251.38C297.01 251.23 298.33 253.1 298.42 255.14C299.25 261.69 301.27 268.56 305.98 272.45C315.06 279.56 326.45 279.07 336.85 279.27C345.47 278.8 355.14 278.66 362.17 271.75C365.87 267.81 366.97 261.22 365.97 255.55C364.88 250.76 360.76 248.53 357.21 247.07C339.02 240.08 319.27 242.62 301.26 234.72C293.94 231.58 286.87 225.65 284.06 216.53C280.14 203.62 281.94 187.66 290.19 177.77C298.24 167.94 309.86 164.15 320.91 162.8C336.2 161.6 352.57 162.09 366.33 171.23Z" id="c2DURParOY"></path></defs><g><g><g><use xlink:href="#as2SoiOdj" opacity="1" fill="#000000" fill-opacity="1"></use><g><use xlink:href="#as2SoiOdj" opacity="1" fill-opacity="0" stroke="#53df32" stroke-width="15" stroke-opacity="1"></use></g></g><g><use xlink:href="#b19PR5dv0o" opacity="1" fill="#8cc84b" fill-opacity="1"></use><g><use xlink:href="#b19PR5dv0o" opacity="1" fill-opacity="0" stroke="#000000" stroke-width="1" stroke-opacity="0"></use></g></g><g><use xlink:href="#c2DURParOY" opacity="1" fill="#8cc84b" fill-opacity="1"></use><g><use xlink:href="#c2DURParOY" opacity="1" fill-opacity="0" stroke="#000000" stroke-width="1" stroke-opacity="0"></use></g></g></g></g></svg>